<?xml version="1.0" standalone="no"?>
<!DOCTYPE svg PUBLIC "-//W3C//DTD SVG 20010904//EN"
 "http://www.w3.org/TR/2001/REC-SVG-20010904/DTD/svg10.dtd">
<svg version="1.0" xmlns="http://www.w3.org/2000/svg"
 width="1000.000000pt" height="1000.000000pt" viewBox="0 0 1000.000000 1000.000000"
 preserveAspectRatio="xMidYMid meet">
<metadata>
Created by potrace 1.11, written by Peter Selinger 2001-2013
</metadata>
<g transform="translate(0.000000,1000.000000) scale(0.100000,-0.100000)"
fill="#000000" stroke="none">
<path d="M4739 9666 c-2 -2 -49 -6 -104 -10 -55 -3 -111 -8 -125 -10 -14 -3
-52 -8 -85 -11 -70 -7 -161 -21 -260 -40 -38 -8 -86 -17 -105 -20 -19 -3 -64
-13 -100 -21 -36 -9 -72 -17 -80 -19 -119 -26 -497 -145 -585 -185 -11 -5 -65
-28 -120 -51 -124 -51 -403 -190 -508 -252 -43 -26 -80 -47 -82 -47 -9 0 -288
-189 -374 -253 -301 -224 -646 -558 -861 -832 -30 -38 -57 -72 -60 -75 -15
-12 -182 -255 -243 -353 -162 -257 -305 -544 -407 -812 -12 -33 -26 -69 -30
-80 -88 -227 -179 -581 -220 -849 -28 -180 -28 -183 -35 -251 -3 -33 -8 -78
-11 -100 -10 -72 -12 -648 -3 -740 18 -197 20 -221 24 -240 2 -11 7 -42 10
-70 3 -27 8 -59 10 -70 3 -11 7 -37 10 -59 3 -21 7 -41 9 -45 2 -3 7 -28 10
-55 4 -27 9 -52 11 -55 1 -3 6 -22 9 -41 11 -67 57 -246 98 -380 98 -327 241
-658 411 -955 64 -112 271 -429 317 -485 11 -14 48 -61 82 -105 35 -44 67 -85
73 -91 5 -6 35 -40 65 -75 71 -84 367 -380 449 -449 35 -30 69 -59 75 -65 53
-48 211 -167 348 -263 214 -150 569 -346 789 -437 35 -14 78 -32 94 -40 74
-32 281 -106 405 -143 174 -53 236 -69 370 -97 155 -32 163 -33 270 -50 262
-41 398 -50 725 -50 304 0 537 16 715 50 14 2 41 6 60 9 78 12 293 58 415 91
324 86 586 185 895 339 458 229 832 498 1196 861 189 189 256 263 360 395 124
159 162 210 249 343 51 78 118 187 150 242 54 94 225 427 225 439 0 3 11 29
24 58 121 264 251 704 310 1048 15 90 21 129 40 283 28 221 28 887 1 1012 -3
11 -7 43 -10 70 -2 28 -6 59 -9 71 -2 12 -7 45 -11 75 -3 30 -10 70 -15 89 -5
19 -12 55 -15 80 -4 25 -20 101 -37 170 -16 69 -31 132 -33 140 -2 8 -15 53
-29 100 -225 768 -619 1434 -1175 1991 -214 213 -351 332 -561 486 -509 373
-1129 651 -1755 787 -61 13 -96 20 -203 41 -61 11 -191 29 -292 39 -36 4 -83
9 -105 12 -46 6 -650 15 -656 10z m641 -209 c14 -3 57 -8 95 -11 39 -4 77 -9
85 -11 8 -2 42 -6 75 -10 138 -15 434 -79 638 -139 297 -88 583 -207 882 -369
121 -65 117 -63 325 -199 741 -487 1336 -1220 1673 -2063 105 -262 205 -615
252 -890 2 -16 7 -41 10 -54 11 -56 31 -227 42 -356 16 -179 8 -714 -11 -835
-3 -14 -7 -50 -11 -80 -13 -105 -20 -157 -31 -210 -2 -14 -6 -36 -9 -50 -15
-77 -25 -128 -30 -148 -3 -12 -7 -32 -10 -43 -106 -484 -342 -1030 -638 -1474
-52 -77 -191 -270 -207 -285 -3 -3 -23 -27 -45 -55 -22 -27 -44 -55 -50 -61
-5 -7 -37 -43 -70 -80 -81 -93 -304 -315 -390 -389 -38 -33 -79 -68 -90 -79
-44 -40 -326 -247 -420 -308 -416 -270 -829 -453 -1310 -581 -151 -41 -369
-85 -500 -102 -16 -2 -52 -7 -80 -11 -54 -7 -65 -8 -200 -21 -172 -15 -743 -8
-844 12 -10 2 -42 6 -72 10 -30 3 -65 8 -79 10 -14 2 -45 7 -70 11 -262 35
-765 178 -1005 284 -22 10 -74 33 -115 51 -122 54 -346 171 -475 249 -134 81
-357 231 -385 260 -3 3 -34 27 -70 54 -149 113 -422 367 -565 526 -127 141
-321 392 -405 525 -138 216 -274 465 -349 635 -18 41 -39 89 -46 105 -134 304
-272 820 -309 1156 -4 31 -8 66 -11 77 -12 63 -20 259 -20 487 0 297 6 406 36
610 6 39 13 88 15 110 10 74 74 369 99 460 117 411 287 807 493 1145 110 180
313 461 425 588 114 128 151 168 246 262 101 100 214 203 291 266 19 16 37 31
40 34 37 42 435 318 552 383 26 15 83 46 125 70 108 61 198 105 338 166 66 29
129 56 140 62 29 13 238 87 325 114 157 49 400 110 520 130 19 3 42 8 50 10 8
2 35 6 60 9 25 3 56 8 69 11 21 4 92 13 166 21 17 2 71 6 120 10 50 3 92 8 94
10 6 5 609 -4 641 -9z"/>
<path d="M2065 7490 l-50 -5 0 -52 0 -53 130 1 c72 0 148 0 170 0 l40 -1 0
-477 0 -478 62 -3 62 -3 1 477 c0 263 2 479 4 481 2 3 78 5 167 6 l164 2 3 53
c3 51 2 52 -25 53 -165 3 -689 3 -728 -1z"/>
<path d="M3003 7492 l-23 -3 0 -535 0 -534 60 0 c50 0 60 3 61 18 1 9 2 121 4
247 1 127 3 232 4 235 0 4 126 6 279 5 l277 0 2 -205 c1 -113 2 -226 2 -252
l1 -48 60 0 60 0 -2 537 -3 538 -54 -3 c-30 -1 -56 -3 -57 -5 -2 -2 -5 -104
-6 -227 l-3 -224 -266 1 c-146 0 -273 2 -281 5 -12 5 -14 43 -14 227 l1 221
-25 1 c-14 0 -32 2 -40 3 -8 1 -25 0 -37 -2z"/>
<path d="M4091 7480 c-5 -11 -7 -958 -2 -1043 1 -16 21 -17 296 -17 179 1 295
5 296 10 1 13 1 76 0 93 -1 9 -55 12 -236 11 l-235 -1 2 196 3 196 200 2 c110
1 209 2 220 2 19 1 23 21 16 95 -1 10 -43 13 -221 12 l-220 -1 0 173 0 172
235 0 c181 0 235 3 236 13 6 90 4 97 -16 98 -11 0 -143 1 -293 2 -235 2 -275
0 -281 -13z"/>
<path d="M2154 5541 c-2 -2 -4 -245 -4 -538 l0 -534 62 3 62 3 1 220 0 220
106 1 c59 1 111 -1 116 -5 5 -3 34 -49 64 -101 30 -52 59 -104 66 -115 7 -11
17 -29 22 -40 5 -11 32 -56 58 -100 l49 -80 72 -3 c40 -2 72 -1 72 2 0 3 -63
110 -140 237 -77 127 -140 235 -140 238 0 3 23 17 50 30 56 26 115 86 136 136
38 91 25 221 -29 302 -38 56 -111 97 -202 114 -57 10 -412 19 -421 10z m407
-121 c99 -27 140 -89 135 -202 -5 -101 -46 -153 -146 -183 -30 -9 -256 -14
-268 -6 -4 3 -8 94 -8 201 0 148 3 196 13 200 23 9 230 2 274 -10z"/>
<path d="M3098 5542 c-14 -3 -18 -14 -19 -45 0 -52 0 -997 0 -1015 1 -9 18
-12 63 -10 l62 3 0 527 c0 290 -3 531 -7 534 -7 7 -73 11 -99 6z"/>
<path d="M3374 5540 c-21 -5 -18 -15 68 -255 49 -137 93 -259 98 -270 4 -11
50 -138 101 -282 l93 -263 62 0 61 0 28 78 c29 82 282 787 292 812 30 78 61
175 58 178 -8 8 -116 5 -125 -4 -17 -19 -300 -829 -300 -862 0 -9 -4 -23 -8
-30 -6 -8 -16 15 -29 65 -19 68 -169 504 -193 558 -4 11 -28 76 -51 145 -23
69 -43 126 -45 128 -4 6 -90 8 -110 2z"/>
<path d="M4423 5542 l-33 -3 0 -535 0 -534 300 0 300 0 0 55 c0 37 -4 55 -12
56 -7 1 -114 2 -238 3 l-225 1 0 197 0 196 205 0 c113 0 213 0 223 1 14 1 17
11 17 55 l0 54 -214 0 c-117 -1 -217 2 -222 5 -5 3 -9 79 -9 169 l0 163 238 3
237 2 0 55 c0 53 -1 55 -27 56 -88 3 -513 3 -540 1z"/>
<path d="M5243 5540 c-17 -5 -18 -32 -17 -525 1 -286 2 -526 3 -532 1 -9 20
-13 61 -13 l60 0 0 224 0 223 111 0 111 0 22 -36 c13 -20 34 -56 48 -81 14
-25 63 -109 109 -187 l83 -143 74 0 c40 0 71 3 69 8 -3 4 -24 39 -47 77 -24
39 -51 84 -60 100 -10 17 -54 90 -98 163 l-81 132 49 25 c108 55 161 139 163
258 2 181 -94 283 -285 303 -76 8 -349 11 -375 4z m361 -115 c117 -15 176 -83
170 -197 -3 -69 -21 -113 -59 -147 -48 -41 -100 -53 -242 -56 l-123 -2 0 203
c0 183 2 203 17 206 25 5 181 0 237 -7z"/>
<path d="M2448 3586 c-260 -75 -387 -317 -345 -657 26 -208 155 -361 341 -404
120 -28 383 -9 411 29 9 12 11 93 3 101 -2 2 -34 -5 -73 -15 -104 -26 -273
-22 -339 8 -144 65 -216 199 -216 401 0 210 72 345 218 414 58 27 75 30 161
30 77 0 111 -5 168 -25 l72 -26 13 22 c14 22 38 74 38 82 0 2 -12 9 -27 15
-129 49 -305 59 -425 25z"/>
<path d="M6548 3594 c-110 -25 -226 -102 -285 -189 -26 -38 -69 -139 -78 -185
-15 -70 -14 -266 2 -337 41 -184 143 -301 307 -352 86 -27 266 -28 371 -3 l70
17 3 56 2 56 -82 -18 c-57 -12 -116 -17 -188 -15 -90 2 -113 6 -162 30 -99 47
-171 148 -193 271 -13 69 -13 198 0 260 29 136 111 243 220 285 102 39 249 30
375 -24 15 -6 20 2 59 81 10 20 7 23 -42 41 -29 11 -70 23 -92 27 -70 13 -228
12 -287 -1z"/>
<path d="M3106 3584 c-8 -7 -11 -171 -10 -530 1 -285 2 -522 3 -526 0 -4 28
-7 61 -7 l60 1 2 252 3 251 280 0 280 0 0 -250 0 -250 63 -3 62 -3 0 536 0
535 -63 0 -63 0 1 -225 c0 -195 -2 -225 -15 -226 -19 -1 -497 -1 -527 0 l-23
1 0 225 c0 173 -3 225 -12 226 -71 4 -93 2 -102 -7z"/>
<path d="M4946 3590 l-58 -5 0 -355 c0 -195 -5 -379 -10 -409 -24 -134 -122
-204 -288 -204 -76 0 -154 30 -200 77 -69 70 -73 94 -73 524 l-1 372 -62 0
-62 0 0 -372 c1 -401 6 -454 53 -534 68 -116 184 -174 350 -174 220 0 364 101
405 285 9 41 17 794 8 798 -2 1 -29 0 -62 -3z"/>
<path d="M7181 3592 c-8 -3 -11 -166 -11 -537 l0 -533 63 1 62 2 1 240 c1 132
2 245 3 250 1 7 95 11 281 11 l280 0 0 -253 0 -253 63 1 62 1 0 528 c0 291 -3
531 -7 535 -5 6 -64 9 -105 6 -10 -1 -13 -53 -13 -226 0 -207 -1 -225 -17
-226 -90 -3 -532 -1 -539 4 -5 3 -9 101 -9 221 1 119 -1 219 -4 224 -6 7 -91
10 -110 4z"/>
<path d="M5295 3058 l1 -533 59 0 60 0 3 222 2 221 108 0 c112 0 123 -4 145
-47 21 -40 57 -103 139 -241 41 -69 77 -133 81 -143 6 -15 18 -17 82 -16 74 2
75 2 62 23 -68 107 -267 444 -267 451 0 6 25 23 56 39 63 33 118 98 136 160
17 63 12 174 -10 226 -24 54 -75 108 -122 128 -83 35 -135 42 -335 42 l-200 0
0 -532z m385 417 c58 -10 113 -38 132 -67 60 -93 34 -248 -50 -296 -51 -28
-86 -34 -224 -36 l-118 -2 0 202 c0 202 0 203 23 206 38 5 190 1 237 -7z"/>
</g>
</svg>
