<?xml version="1.0" standalone="no"?>
<!DOCTYPE svg PUBLIC "-//W3C//DTD SVG 20010904//EN"
 "http://www.w3.org/TR/2001/REC-SVG-20010904/DTD/svg10.dtd">
<svg version="1.0" xmlns="http://www.w3.org/2000/svg"
 width="1080.000000pt" height="1080.000000pt" viewBox="0 0 1080.000000 1080.000000"
 preserveAspectRatio="xMidYMid meet">
<metadata>
Created by potrace 1.11, written by Peter Selinger 2001-2013
</metadata>
<g transform="translate(0.000000,1080.000000) scale(0.100000,-0.100000)"
fill="#000000" stroke="none">
<path d="M1581 7200 c-73 -8 -64 -30 13 -30 l66 0 0 -1075 c0 -1017 -1 -1075
-17 -1076 -10 0 -39 -1 -65 -1 -37 1 -46 -2 -44 -16 3 -15 27 -17 255 -17 218
0 251 2 249 15 -3 11 -18 15 -63 16 l-60 1 -1 521 -1 522 86 0 c69 0 96 -5
136 -24 91 -42 163 -145 200 -286 15 -53 18 -117 20 -350 2 -311 5 -328 61
-383 43 -43 83 -60 144 -61 98 -1 196 79 202 166 4 46 -24 45 -33 -1 -9 -45
-40 -75 -68 -66 -45 14 -50 44 -52 336 -1 257 -3 278 -24 342 -30 88 -75 156
-142 217 -55 49 -161 106 -215 117 -27 5 -25 8 39 33 173 67 285 188 330 355
14 49 12 301 -2 354 -50 188 -207 333 -407 375 -39 8 -134 15 -225 16 -87 0
-198 2 -248 3 -49 1 -110 0 -134 -3z m529 -47 c107 -35 204 -172 236 -335 3
-18 7 -95 8 -171 3 -231 -40 -376 -144 -476 -61 -59 -124 -81 -225 -78 l-70 2
-1 538 -2 537 73 0 c41 0 96 -7 125 -17z"/>
<path d="M3570 7200 c-160 -5 -205 -21 -88 -30 l63 -5 0 -1072 c0 -1067 0
-1073 -20 -1074 -11 0 -39 -1 -62 -1 -34 0 -43 -3 -43 -16 0 -15 23 -17 243
-17 133 0 248 4 255 8 24 16 1 25 -58 24 l-60 -2 -1 35 c-1 45 -1 2068 0 2097
1 20 7 22 64 25 35 2 61 7 60 13 -4 14 -169 21 -353 15z"/>
<path d="M4626 7200 c-43 -3 -71 -10 -74 -17 -3 -10 14 -13 61 -13 75 0 68 9
92 -118 2 -13 7 -31 9 -40 3 -9 23 -98 45 -197 21 -99 58 -265 81 -370 23
-104 46 -208 50 -230 5 -22 49 -223 99 -447 50 -224 92 -417 95 -430 2 -13 14
-66 26 -118 12 -52 23 -106 26 -120 21 -117 33 -149 55 -147 24 2 35 19 43 69
3 21 11 59 17 85 30 133 91 422 95 453 3 19 10 53 16 75 6 22 12 51 14 65 3
14 8 34 11 45 4 11 8 29 8 40 1 11 12 65 24 120 13 55 24 107 26 115 36 169
89 420 91 435 12 72 126 595 135 616 19 48 56 77 114 90 83 18 71 36 -26 38
-44 1 -84 2 -87 2 -4 1 -37 1 -74 0 -53 -1 -68 -4 -68 -16 0 -12 13 -15 61
-15 l62 0 -6 -37 c-5 -32 -26 -132 -43 -208 -3 -11 -7 -31 -10 -45 -3 -14 -7
-32 -9 -40 -3 -8 -7 -33 -11 -55 -3 -22 -8 -43 -10 -46 -2 -3 -6 -21 -9 -40
-3 -19 -8 -42 -11 -51 -3 -9 -7 -27 -9 -40 -10 -49 -17 -85 -95 -453 -44 -209
-90 -420 -101 -470 -10 -49 -22 -103 -25 -120 -7 -39 -12 -43 -18 -14 -3 13
-16 74 -30 134 -14 61 -32 146 -41 190 -9 44 -18 88 -20 98 -2 10 -6 26 -9 35
-3 9 -7 28 -10 42 -6 31 -7 33 -56 260 -22 102 -45 203 -50 225 -8 34 -16 74
-26 120 -7 39 -106 484 -110 498 -5 15 3 17 60 17 52 0 66 3 66 15 0 12 -14
15 -62 15 -35 0 -119 2 -188 3 -69 1 -156 0 -194 -3z"/>
<path d="M6517 7200 c-82 -6 -89 -24 -10 -28 32 -2 60 -7 63 -12 8 -13 6
-2127 -2 -2136 -4 -4 -33 -7 -63 -6 -45 0 -55 -3 -55 -16 0 -16 39 -17 457
-17 l458 0 1 218 c1 131 -3 220 -9 224 -14 9 -23 -12 -26 -65 -4 -99 -49 -230
-98 -288 -42 -50 -61 -55 -224 -55 -85 -1 -160 -1 -166 0 -10 1 -13 114 -13
530 l0 530 110 -3 c92 -2 112 -5 131 -22 32 -29 49 -68 65 -152 8 -41 16 -78
19 -80 18 -18 22 39 22 273 0 251 -1 265 -19 265 -10 0 -17 -3 -16 -7 6 -23
-15 -130 -32 -161 -41 -78 -39 -77 -165 -80 l-115 -4 0 531 0 531 163 0 c143
0 166 -2 194 -20 37 -22 91 -92 100 -129 3 -14 9 -30 13 -36 12 -17 32 -133
34 -192 0 -31 5 -37 24 -30 4 1 7 100 8 220 l0 217 -100 0 c-56 0 -231 2 -391
3 -159 1 -320 0 -358 -3z"/>
<path d="M8203 7202 c-74 -2 -93 -6 -93 -17 0 -12 14 -15 60 -15 41 0 60 -4
61 -12 6 -56 4 -2125 -2 -2133 -4 -6 -33 -9 -64 -9 -47 2 -56 -1 -53 -14 3
-15 29 -17 233 -17 248 -1 278 1 272 19 -2 6 -29 11 -65 11 l-62 0 0 523 0
522 86 0 c64 0 96 -5 129 -20 96 -44 178 -164 212 -310 10 -44 12 -98 13 -338
1 -157 6 -276 12 -295 39 -115 182 -177 286 -123 35 18 90 78 103 113 14 37
11 73 -6 73 -8 0 -15 -9 -15 -20 0 -33 -28 -78 -52 -86 -16 -5 -27 0 -45 20
-27 32 -25 0 -28 331 -2 246 -4 275 -23 328 -57 159 -170 269 -334 327 l-51
18 39 12 c86 27 174 83 234 146 105 113 138 214 134 414 -3 180 -39 280 -136
381 -54 56 -158 121 -213 134 -5 2 -30 8 -54 15 -25 6 -72 14 -105 16 -83 6
-360 10 -473 6z m512 -59 c73 -39 127 -102 165 -193 37 -89 49 -165 50 -321 0
-167 -18 -260 -70 -358 -68 -127 -154 -179 -293 -179 l-77 0 0 540 0 540 93
-4 c68 -3 102 -10 132 -25z"/>
<path d="M2829 4369 c-56 -9 -116 -45 -158 -96 -58 -70 -61 -96 -61 -533 -1
-231 3 -409 9 -428 47 -157 212 -244 345 -182 25 12 46 26 46 31 0 4 9 13 20
19 23 12 50 -6 50 -34 0 -9 5 -16 10 -16 6 0 10 50 10 130 0 80 -4 130 -10
130 -5 0 -10 -14 -10 -31 0 -94 -71 -200 -152 -224 -66 -19 -103 1 -143 79
l-30 60 -3 438 c-3 371 -1 448 13 499 34 135 115 179 211 116 55 -36 103 -125
104 -194 0 -17 5 -35 10 -38 6 -4 10 42 10 129 0 75 -2 136 -6 136 -3 0 -10
-13 -15 -29 -15 -42 -30 -43 -72 -6 -49 44 -101 56 -178 44z"/>
<path d="M6877 4369 c-66 -15 -112 -46 -159 -109 -50 -66 -54 -110 -53 -540 1
-375 2 -397 22 -441 74 -166 266 -223 384 -113 30 28 54 24 63 -12 15 -57 24
-15 24 106 0 72 -4 130 -9 130 -5 0 -9 -13 -9 -30 0 -40 1 -38 -26 -97 -38
-86 -96 -133 -165 -133 -56 0 -100 44 -124 125 -16 54 -18 106 -18 485 0 471
4 506 63 574 36 41 70 51 119 35 75 -24 133 -107 147 -210 11 -86 21 -44 21
93 0 103 -2 129 -11 114 -6 -11 -19 -28 -29 -38 -17 -18 -18 -18 -44 8 -48 48
-124 68 -196 53z"/>
<path d="M3507 4349 c4 -4 22 -9 38 -11 l30 -3 0 -595 0 -595 -33 1 c-18 0
-31 -4 -29 -10 2 -7 52 -10 133 -9 156 2 146 1 139 12 -3 5 -17 8 -30 5 -19
-3 -27 1 -33 15 -5 15 -8 485 -3 559 1 9 32 12 121 12 100 0 120 -3 121 -15 0
-8 1 -132 1 -275 0 -143 -1 -268 -1 -278 -1 -15 -9 -18 -36 -17 -20 0 -34 -4
-32 -9 4 -12 263 -15 280 -4 12 8 7 9 -45 12 l-23 1 0 595 0 595 33 3 c17 2
32 7 32 11 0 11 -269 10 -276 0 -3 -5 11 -9 30 -9 29 0 36 -4 37 -20 0 -11 1
-137 1 -280 0 -143 -1 -267 -1 -275 -1 -12 -21 -15 -121 -15 -66 0 -120 3
-121 8 0 4 -1 135 -2 292 l-1 285 37 3 c20 2 37 7 37 11 0 4 -66 8 -146 8 -80
0 -142 -3 -137 -8z"/>
<path d="M4560 4348 c0 -4 16 -8 35 -8 29 0 35 -4 35 -22 1 -13 1 -237 1 -498
l0 -475 24 -60 c45 -112 155 -182 269 -173 34 3 65 13 86 28 39 28 86 99 102
155 8 27 12 195 12 520 1 331 5 486 12 499 7 11 22 20 35 21 12 1 24 6 26 12
3 8 -23 11 -76 10 -80 0 -111 -13 -48 -19 l32 -3 0 -510 0 -510 -26 -56 c-43
-92 -92 -129 -168 -129 -49 0 -93 45 -118 120 -16 50 -18 97 -18 570 l0 515
29 0 c16 1 31 5 33 11 2 7 -44 11 -137 11 -77 0 -140 -4 -140 -9z"/>
<path d="M5585 4350 c-3 -5 12 -10 32 -12 l38 -3 0 -588 c0 -324 -3 -594 -6
-599 -4 -6 -16 -9 -27 -6 -11 3 -26 2 -33 -3 -10 -6 -6 -9 14 -10 33 -1 230
-1 254 0 28 2 5 14 -29 16 l-32 2 -1 279 c0 153 1 284 3 290 4 15 96 8 132
-11 16 -8 41 -32 55 -53 44 -64 56 -126 57 -299 1 -135 3 -162 19 -189 34 -56
102 -70 159 -31 38 25 59 72 41 90 -8 8 -11 4 -11 -16 0 -35 -32 -54 -51 -30
-10 12 -14 55 -15 158 -1 167 -7 206 -40 261 -30 52 -75 91 -138 119 l-50 22
30 7 c74 18 158 100 184 180 15 45 15 186 1 235 -24 79 -102 153 -195 183 -40
13 -384 20 -391 8z m345 -31 c78 -48 113 -139 112 -296 0 -92 -25 -171 -68
-222 -38 -44 -80 -62 -139 -58 l-39 2 -1 280 c0 154 1 288 3 298 6 26 87 23
132 -4z"/>
<path d="M7564 4349 c-3 -5 11 -9 30 -9 27 0 36 -4 37 -17 1 -23 1 -1166 0
-1174 -1 -4 -9 -6 -18 -6 -39 0 -56 -3 -50 -9 9 -9 253 -11 275 -2 19 7 11 10
-38 12 l-25 1 0 293 -1 292 123 0 123 0 0 -293 0 -293 -27 0 c-16 1 -29 -3
-31 -9 -2 -10 257 -14 264 -4 5 9 -16 16 -42 14 l-22 -1 0 598 -1 598 35 0
c19 0 33 4 30 9 -3 4 -66 8 -141 8 -74 0 -135 -4 -135 -8 0 -5 16 -9 35 -9
l35 0 0 -295 0 -295 -123 0 -123 0 1 293 0 292 40 6 c22 3 38 7 35 9 -14 8
-281 7 -286 -1z"/>
</g>
</svg>
